<?xml version="1.0" encoding="UTF-8" standalone="no"?>
<svg
   xmlns:ns="http://ns.adobe.com/SaveForWeb/1.0/"
   xmlns:dc="http://purl.org/dc/elements/1.1/"
   xmlns:cc="http://creativecommons.org/ns#"
   xmlns:rdf="http://www.w3.org/1999/02/22-rdf-syntax-ns#"
   xmlns:svg="http://www.w3.org/2000/svg"
   xmlns="http://www.w3.org/2000/svg"
   xmlns:sodipodi="http://sodipodi.sourceforge.net/DTD/sodipodi-0.dtd"
   xmlns:inkscape="http://www.inkscape.org/namespaces/inkscape"
   version="1.1"
   x="0px"
   y="0px"
   viewBox="0 0 60 60"
   enable-background="new 0 0 64 64"
   xml:space="preserve"
   id="svg22"
   sodipodi:docname="Logo.svg"
   inkscape:version="0.92.3 (2405546, 2018-03-11)"
   width="60"
   height="60"
   inkscape:export-filename="D:\Jang\Build\Source\PEBakery\Icon\ManagedWimLib\Logo128.png"
   inkscape:export-xdpi="243.32674"
   inkscape:export-ydpi="243.32674"><defs
     id="defs26" /><sodipodi:namedview
     pagecolor="#ffffff"
     bordercolor="#666666"
     borderopacity="1"
     objecttolerance="10"
     gridtolerance="10"
     guidetolerance="10"
     inkscape:pageopacity="0"
     inkscape:pageshadow="2"
     inkscape:window-width="1280"
     inkscape:window-height="961"
     id="namedview24"
     showgrid="false"
     inkscape:zoom="2.95"
     inkscape:cx="-118.81356"
     inkscape:cy="22.000001"
     inkscape:window-x="-8"
     inkscape:window-y="938"
     inkscape:window-maximized="1"
     inkscape:current-layer="svg22"
     fit-margin-top="5"
     fit-margin-left="5"
     fit-margin-right="5"
     fit-margin-bottom="5" /><metadata
     id="metadata2"><ns:sfw><ns:slices /><ns:sliceSourceBounds
         height="16384"
         width="16389"
         x="-8165"
         y="-8160"
         bottomLeftOrigin="true" /></ns:sfw><rdf:RDF><cc:Work
         rdf:about=""><dc:format>image/svg+xml</dc:format><dc:type
           rdf:resource="http://purl.org/dc/dcmitype/StillImage" /><dc:title /></cc:Work></rdf:RDF></metadata><g
     id="g16"
     transform="translate(-2.0249995,-1.9999995)"
     style="stroke:#ffffff;stroke-width:0.5;stroke-miterlimit:4;stroke-dasharray:none;stroke-opacity:1"><g
       id="g14"
       style="stroke:#ffffff;stroke-width:0.5;stroke-miterlimit:4;stroke-dasharray:none;stroke-opacity:1"><path
         d="m 32,41 c 4.963,0 9,-4.037 9,-9 0,-4.963 -4.037,-9 -9,-9 -4.962,0 -9,4.038 -9,9 0,4.962 4.038,9 9,9 z m 0,-13 c 2.209,0 4,1.791 4,4 0,2.209 -1.791,4 -4,4 -2.209,0 -4,-1.79 -4,-4 0,-2.208 1.791,-4 4,-4 z"
         id="path4"
         inkscape:connector-curvature="0"
         style="stroke:#ffffff;stroke-width:0.5;stroke-miterlimit:4;stroke-dasharray:none;stroke-opacity:1" /><path
         d="M 21.051,33 H 7.025 c 0.243,6.14 2.708,11.716 6.615,15.946 l 9.912,-9.912 C 22.162,37.366 21.258,35.283 21.051,33 Z"
         id="path6"
         inkscape:connector-curvature="0"
         style="stroke:#ffffff;stroke-width:0.5;stroke-miterlimit:4;stroke-dasharray:none;stroke-opacity:1" /><path
         d="M 42.949,33 C 42.442,38.598 37.729,43 32,43 29.327,43 26.875,42.039 24.966,40.448 L 15.054,50.36 C 19.513,54.478 25.466,57 32,57 45.45,57 56.447,46.322 56.975,33 Z"
         id="path8"
         inkscape:connector-curvature="0"
         style="stroke:#ffffff;stroke-width:0.5;stroke-miterlimit:4;stroke-dasharray:none;stroke-opacity:1" /><path
         d="M 56.975,31 C 56.732,24.86 54.267,19.285 50.36,15.055 l -9.911,9.912 c 1.391,1.667 2.294,3.75 2.501,6.033 z"
         id="path10"
         inkscape:connector-curvature="0"
         style="stroke:#ffffff;stroke-width:0.5;stroke-miterlimit:4;stroke-dasharray:none;stroke-opacity:1" /><path
         d="M 21.051,31 C 21.559,25.402 26.272,21 32,21 c 2.674,0 5.125,0.96 7.034,2.552 L 48.945,13.64 C 44.487,9.522 38.533,7 32,7 18.55,7 7.553,17.677 7.025,31 Z"
         id="path12"
         inkscape:connector-curvature="0"
         style="stroke:#ffffff;stroke-width:0.5;stroke-miterlimit:4;stroke-dasharray:none;stroke-opacity:1" /></g></g></svg>